# xmcd CD database file
#
# Track frame offsets:
#	150
#	17751
#	31970
#	51559
#	72657
#	123890
#	135954
#	165155
#	187427
#	206399
#	228547
#	242340
#	263873
#
# Disc length: 3781 seconds
#
# Revision: 4
# Processed by: cddbd v1.5.1PL2 Copyright (c) Steve Scherf et al.
# Submitted via: CDex 1.51
#
DISCID=b30ec30d
DTITLE=Inga Rumpf and Joja Wendt Quartet - At Lloyds
DYEAR=1997
DGENRE=Blues
TTITLE0=MY OWN WAY TO ROCK
TTITLE1=CAKEWALK INTO TOWN
TTITLE2=IN THE 25TH HOUR
TTITLE3=UNDERCOVER AGENT FOR THE BLUES
TTITLE4=ELLAS'S BLUES
TTITLE5=THE JUNKER
TTITLE6=JIM DANDY
TTITLE7=YOU GO TO MY HEAD
TTITLE8=WHAT IS A HANDFUL OF GOLD
TTITLE9=IT'S A MAN'S WORLD
TTITLE10=SPRINGTIME SHUFFLE
TTITLE11=SAVED
TTITLE12=LOVE IS GOLD
EXTD=YEAR: 1997
EXTT0=
EXTT1=
EXTT2=
EXTT3=
EXTT4=
EXTT5=
EXTT6=
EXTT7=
EXTT8=
EXTT9=
EXTT10=
EXTT11=
EXTT12=
PLAYORDER=
